<svg xmlns="http://www.w3.org/2000/svg" width="1935.439" height="644.062" viewBox="0 0 1935.439 644.062">
  <defs>
    <style>
      .cls-1 {
        fill: #ea3e3e;
        fill-rule: evenodd;
      }
    </style>
  </defs>
  <path id="読み橋" class="cls-1" d="M655.805,1219.28l-1.466,24.92q-8.073,9.54-32.98,11.36-24.924,1.845-53.134,2.93-28.223,1.11-54.6-24.55-4.4-58.62,19.056-110.3,23.447-51.66,23.452-58.26t-13.925-20.52q-13.931-13.92-25.285-16.86a143.258,143.258,0,0,1-25.284-9.53l-13.192,13.93q11.715,16.125,14.291,21.62,2.559,5.49,1.1,21.98-1.476,16.5-8.794,61.2l-19.055,78.42q-6.6,24.93,7.328,50.57,29.305,27.84,88.314,33.35,58.986,5.49,104.436,1.83l37.378-9.53q8.795-20.52-2.2-52.04-10.272-46.17-46.172-73.28Zm-540.873-22.72,6.6,60.83q0.721,13.2,7.329,21.26t27.85,6.59l13.192-11.72,68.892-8.8q16.851-5.85,54.234-6.59,0.721-16.86-12.46-34.45,11.715-58.62,17.956-67.42a31.856,31.856,0,0,0,6.23-18.69q0-9.9-15.757-22.36t-31.148-11.72q-15.392.735-21.254,4.76t-32.247,11.36l-56.433,13.93a56.8,56.8,0,0,0-20.52-11.36q-10.993-3.3-31.515-2.57,0,4.4,14.658,36.65Zm304.516-128.98q6.957,10.26,0,38.11-6.974,27.855-22.353,67.79t-34.812,69.99q-19.428,30.06-35.179,41.41-15.768,11.355-26.018,11.36v8.79l40.309-5.86,42.508-23.45q26.384-27.855,41.042-52.04l21.254-60.83q14.652-46.89,19.421-75.49,4.758-28.575-2.931-33.71a186.5,186.5,0,0,0-19.422-10.99q-11.731-5.865-32.247-5.87Q412.48,1057.325,419.448,1067.58ZM240.257,1220.75q-19.788,2.2-75.488,18.32-2.937-10.995-4.4-32.25-1.478-21.24-2.932-42.5Q225.6,1146,238.058,1149.66ZM106.871,1049.99q15.39,15.39,26.017,24.91,10.615,9.54,19.788,9.53,9.156,0,37.744-9.53l54.234-16.12q34.44,2.94,39.576-12.46-10.272-13.185-17.223-20.89-6.974-7.7-13.192-8.79-6.236-1.1-22.353.37l-94.543,25.65-30.048,1.46v5.87Zm236.723,22.72,18.322-15.39,10.994-42.51q24.906-2.2,31.147-3.3,6.219-1.1,26.384-4.76,20.15-3.66,76.587-12.463l52.768-8.062,29.316,1.466q-8.073,19.063-13.925,28.219-5.874,9.165-5.863,14.29l21.987,0.73,52.768-15.39q24.185-12.45,33.713-21.986L639.681,949.58,604.5,929.792l-41.042,13.925-54.234,9.528-40.309,8.062-57.9,8.794q-10.994,5.875-32.247,1.466-5.136-15.39-9.528-20.887a40.138,40.138,0,0,0-9.527-8.795q-5.136-3.3-25.652-4.764l-1.465,60.1-16.857,60.1q10.993,15.39,27.85,15.39h0ZM103.939,957.642q22.709,22.725,29.316,29.682,6.6,6.973,17.589,5.5,10.994-1.46,18.322-5.863t39.943-11.726q32.6-7.319,77.32-14.658,0.722-23.446-16.857-36.645l-28.583-8.062a196.4,196.4,0,0,1-41.774,15.025q-22.725,5.5-44.34,12.459t-50.936,9.161v5.13ZM382.8,912.936a64.347,64.347,0,0,0,25.284,15.024q14.652,4.776,36.645-1.1l42.507-9.528,25.651-1.466,73.289-8.794,10.261-13.925q-16.13-19.05-26.384-22.353-10.272-3.3-34.079-1.832-23.826,1.476-35.546,7.328v-57.9q62.284-12.453,73.289-9.527,11.715,0.738,49.1,3.664l10.26-20.521q-16.128-15.39-46.905-30.781l-85.015,12.459,5.13-71.823q-14.668-16.851-28.216-21.254-13.569-4.4-43.607-7.329L446.2,700.4l5.13,13.925,6.6,67.426L383.9,797.139l-36.645-2.931q-5.874,10.272,2.932,20.521Q364.1,833.8,404.424,839.647l56.432-12.459V883.62q-40.314,11.733-88.679,8.062Q372.177,902.676,382.8,912.936ZM120.063,901.943q5.858-2.2,46.9-13.925l48.37-13.925,76.221-10.261,31.514,1.466q10.256-4.4,8.8-18.322Q315,830.863,307.316,826.088a121.48,121.48,0,0,0-14.291-7.695q-6.6-2.92-41.775,5.863l-38.11,7.329-22.72,5.863L107.6,853.572A391.582,391.582,0,0,1,40.911,860.9Q61.42,894.62,79.754,903.408,114.194,904.147,120.063,901.943Zm18.322-175.894q27.105,25.662,53.5,49.1,29.3,27.121,54.967,37.377,2.2-19.05,5.13-29.316l-3.665-13.924-38.11-40.309-19.055-9.528-52.768-4.4v10.993ZM1047.46,1184.84l-19.79,30.05-34.443,36.64L930.2,1293.31h19.788q30.042-2.2,52.4-12.46,22.35-10.275,64.13-56.07t55.7-82.08q13.9-36.285,26.38-64.86l24.92,11.72,51.3,27.85q18.315,13.935,27.85,17.23a119.282,119.282,0,0,0,17.59,4.76q-0.735-25.65-5.5-39.21t-20.88-31.88q-17.6-9.525-83.55-33.71,23.445-54.234,21.62-62.3-1.845-8.056-8.43-17.956-6.6-9.894-54.24-34.079l9.53,41.775-7.33,53.5-4.39,12.46-74.03-6.6-93.806,6.6q55.688-134.12,86.476-213.271-7.32-16.851-13.55-23.086-6.24-6.219-26.021-20.155-17.589,11.733-65.594,27.117t-93.443,16.124v3.664q13.193,21.265,26.384,31.514A51.8,51.8,0,0,0,893.921,860.9a69.5,69.5,0,0,0,33.346-6.963q16.113-7.7,45.439-15.024-1.476,13.192-53.5,152.441-16.128,33.713-25.651,46.9l-56.432,13.19q-38.116,11.73-79.152,36.65,3.659,5.865,6.6,22.72l21.986,41.04q21.987,35.91,41.775,57.16l13.925-1.46,23.453-30.05,57.165-84.28,13.925-22.72,60.83-2.2,99.675,4.4q-8.8,38.115-49.84,112.13h0Zm-230.493-58.27q-4.774-8.415-4.4-13.92,0.361-5.505,10.993-11.73,10.615-6.21,16.49-8.06,5.857-1.815,21.254-6.23l19.788-5.13-43.973,73.29Q821.731,1135,816.967,1126.57Zm639.743-18.69-2.93,93.81-0.74,19.06-8.79,42.51a29.68,29.68,0,0,0,2.93,12.82q2.925,6.225,6.23,15.03a72.146,72.146,0,0,0,10.63,18.32q7.305,9.51,27.11,2.93l5.87-18.32V997.951q25.635,12.463,66.69,35.179l12.46-1.47a156.993,156.993,0,0,0-10.63-31.14q-6.975-15.018-24.92-22.723-17.97-7.7-26.38-12.093a118.085,118.085,0,0,0-17.22-7.329V907.806q8.79-6.6,14.65-6.6t29.32-3.3q23.445-3.3,27.48-7.7t4.03-19.788l-20.52-18.322q-37.38,9.534-54.96,11.726l-0.74-131.187q-18.33-27.844-33.34-34.079-15.03-6.219-24.56-6.963,4.41,18.329,8.43,28.217t9.16,50.2l-0.73,101.872q-54.96,22.725-118.73,29.316v12.459l10.26,11.726q19.05,16.13,32.62,16.124,13.545,0,35.18-7.7,21.6-7.7,33.34-10.627a335.3,335.3,0,0,0-13.19,47.638l-21.25,45.436q-13.2,33.72-44.71,79.89l-38.11,42.51-32.25,28.58q19.785,2.94,41.04-3.67,30.045-8.79,57.17-36.27,27.105-27.495,61.56-128.626Zm104.8,13.93,2.93,52.03a436.392,436.392,0,0,1-2.93,45.44l-2.93,55.7q5.85,19.05,26.38,41.05l16.86-16.13V1139.4l-5.86-42.51q21.24,2.2,43.97-7.33l58.63-8.79,87.95-12.46,61.56-2.93,8.79,9.52q10.26,92.355-17.58,187.62-38.13-8.055-65.96-23.45,16.11,38.85,36.64,57.9,20.505,19.05,34.81,19.06t21.62-8.07q7.32-8.07,19.79-44.7l10.99-61.57q8.8-65.955,23.46-117.99-5.145-15.39-55.7-56.43h-21.99q-11.73,3.675-59.36,6.59l-85.02,10.26q-18.33,5.145-64.49,8.8l-49.11,7.33q-13.92-10.995-40.31-10.26,10.995,27.855,16.86,71.82h0Zm90.15,48.37,12.45,52.77,2.2,24.18q8.805,0,32.25-24.18h90.88q8.055-8.79,8.06-15.03,0-6.21-10.99-18.68,12.45-19.05,17.95-28.22,5.505-9.15,10.63-37.01-12.465-14.655-19.06-16.49a27.218,27.218,0,0,0-12.45-.73q-5.88,1.1-45.44,5.49-39.585,4.4-51.31,7.33t-49.83-1.47q2.91,12.48,14.66,52.04h0Zm103.33,18.32q-56.445,3.675-62.29,12.46l-9.53-48.37q18.315-3.66,77.69-10.26ZM1649.46,947.015q0,9.173,2.56,32.614,2.565,23.463,10.26,31.151t18.69-4.03l6.6-5.87q11.715,5.145,28.58-.73h59.36l11,2.2,8.79-5.865q0-11.715-4.4-16.49-4.395-4.758-2.93-14.291a77.678,77.678,0,0,1,4.77-17.589q3.3-8.056,6.96-37.378,30.78,17.589,44.34,26.751t33.35,15.024q24.9,9.533,49.1.733a139.014,139.014,0,0,0,47.64-19.788q-30.06-5.12-65.23-19.055a770.177,770.177,0,0,1-75.49-35.179l-64.49-37.377-8.8-5.863,32.25-5.864,106.27,2.2q11.715-11.715-4.4-27.117a156.077,156.077,0,0,1-29.31-9.527l-47.64,3.664-48.37,5.863-35.18,5.863,11.73-54.966q6.585-5.857,18.32-9.162,11.715-3.3,21.62-13.924,9.885-10.615,9.89-16.857,0-6.217-9.89-17.589-9.9-11.355-34.08-23.086-9.54,13.191-26.39,33.713a357.518,357.518,0,0,1-59.73,37.377,622.74,622.74,0,0,1-68.52,28.583q0,2.937,8.79,11.726,21.99,10.993,52.77,0,11.715-6.6,40.31-19.055-3.675,29.321-8.79,46.905l-86.49,21.254h-35.17q0,8.795,10.26,19.788t15.75,13.924q5.505,2.938,21.62,1.466a71.9,71.9,0,0,0,30.79-10.26l29.31-8.795q-43.965,44.712-87.21,76.221a296.393,296.393,0,0,1-49.84,24.918q11.715,8.073,28.58,8.795,26.385,0.738,41.41-8.429t32.61-25.284Q1649.46,937.86,1649.46,947.015Zm104.8,20.888q-34.455,3.675-66.69,5.863l-2.93-51.3q38.085-3.659,49.47-5.13,11.34-1.459,26.01,2.2Zm-49.47-73.656q-5.49,3.3-23.09,3.3,23.445-14.652,39.58-43.973,1.455,7.335,48.37,34.446Q1710.28,890.955,1704.79,894.247Z" transform="translate(-40.031 -672.688)"/>
</svg>
